<?xml version="1.0" encoding="UTF-8" standalone="no"?>
<!-- Created with Inkscape (http://www.inkscape.org/) -->

<svg
   width="26.987501mm"
   height="25.135416mm"
   viewBox="0 0 26.987501 25.135416"
   version="1.1"
   id="svg1"
   xml:space="preserve"
   inkscape:export-filename="bitmap.png"
   inkscape:export-xdpi="96"
   inkscape:export-ydpi="96"
   xmlns:inkscape="http://www.inkscape.org/namespaces/inkscape"
   xmlns:sodipodi="http://sodipodi.sourceforge.net/DTD/sodipodi-0.dtd"
   xmlns="http://www.w3.org/2000/svg"
   xmlns:svg="http://www.w3.org/2000/svg"><sodipodi:namedview
     id="namedview1"
     pagecolor="#ffffff"
     bordercolor="#000000"
     borderopacity="0.25"
     inkscape:showpageshadow="2"
     inkscape:pageopacity="0.0"
     inkscape:pagecheckerboard="0"
     inkscape:deskcolor="#d1d1d1"
     inkscape:document-units="mm" /><defs
     id="defs1" /><g
     inkscape:label="Capa 1"
     inkscape:groupmode="layer"
     id="layer1"
     transform="translate(-91.547127,-136.10825)"><path
       style="fill:#000000"
       d="m 101.60129,154.47204 c -3.119499,-0.56596 -4.135821,-1.33555 -3.884381,-2.94138 0.180067,-1.15 1.605507,-2.58663 2.834261,-2.85651 1.22321,-0.26866 1.39188,-0.69618 0.7943,-2.01324 -1.03657,-2.28457 -0.50394,-4.70597 1.19094,-5.41413 1.13975,-0.47622 1.56045,-0.47217 2.6084,0.0251 1.30261,0.61813 1.8455,1.75419 1.6666,3.48758 -0.082,0.79416 -0.33527,1.72816 -0.56291,2.07558 -0.22763,0.34741 -0.41387,0.74882 -0.41387,0.89203 0,0.14321 0.77402,0.62978 1.72005,1.08128 1.16226,0.5547 1.84866,1.06962 2.11666,1.58788 1.26786,2.45176 -0.53601,3.93727 -4.98425,4.1046 -1.33339,0.0502 -2.72199,0.0372 -3.0858,-0.0288 z m 6.48229,-1.70978 c 0.617,-0.3079 0.77328,-0.54185 0.70179,-1.05058 -0.12822,-0.91251 -0.39451,-1.17113 -1.97767,-1.92073 -0.76238,-0.36096 -1.5459,-0.84881 -1.74117,-1.08409 -0.51314,-0.61829 -1.86274,-0.53411 -2.60417,0.16243 -0.34554,0.32461 -1.11485,0.67188 -1.70958,0.99219 -1.354317,0.50346 -2.306572,1.67474 -1.893705,2.32927 0.495788,0.78598 2.160675,1.10568 5.388055,1.03462 2.05398,-0.0452 3.30063,-0.19571 3.83645,-0.46311 z m -3.1934,-6.16052 c 1.85779,-1.85778 0.51818,-5.14218 -1.77175,-4.3439 -0.99162,0.34568 -1.33945,1.09836 -1.17633,2.54552 0.0986,0.87478 0.33055,1.37639 0.83854,1.81334 0.88793,0.76376 1.33398,0.7606 2.10954,-0.015 z"
       id="path1"
       sodipodi:nodetypes="cssccccsssccccccccccccccccscc" /></g></svg>
