<?xml version="1.0" standalone="no"?>
<!DOCTYPE svg PUBLIC "-//W3C//DTD SVG 20010904//EN"
 "http://www.w3.org/TR/2001/REC-SVG-20010904/DTD/svg10.dtd">
<svg version="1.0" xmlns="http://www.w3.org/2000/svg"
 width="128.000000pt" height="128.000000pt" viewBox="0 0 128.000000 128.000000"
 preserveAspectRatio="xMidYMid meet">

<g transform="translate(0.000000,128.000000) scale(0.100000,-0.100000)"
fill="#000000" stroke="none">
<path d="M485 1231 c-92 -24 -173 -90 -215 -176 -34 -69 -35 -198 -2 -265 34
-71 75 -114 144 -151 58 -31 70 -34 148 -33 72 0 93 4 136 26 75 40 107 70
145 140 31 58 34 70 34 148 0 78 -3 90 -34 148 -57 104 -144 160 -260 167 -36
2 -79 1 -96 -4z"/>
<path d="M237 565 c-92 -72 -155 -172 -182 -287 -18 -77 -20 -209 -3 -226 9
-9 105 -12 370 -12 l358 0 -35 51 c-115 168 -68 370 111 475 17 10 17 12 -7
27 -24 16 -28 15 -108 -26 -81 -41 -86 -42 -180 -42 -93 0 -100 2 -177 40 -43
22 -81 41 -84 42 -3 2 -31 -17 -63 -42z"/>
<path d="M915 504 c-96 -35 -163 -145 -152 -249 6 -64 23 -98 72 -147 95 -94
247 -89 338 12 93 103 90 228 -8 325 -72 73 -157 93 -250 59z m199 -206 c8
-13 8 -23 0 -35 -9 -15 -29 -19 -109 -21 -100 -3 -125 5 -125 37 0 35 21 42
124 39 81 -2 101 -6 110 -20z"/>
</g>
</svg>
